<svg xmlns="http://www.w3.org/2000/svg" xmlns:xlink="http://www.w3.org/1999/xlink" width="505.17" height="113.403" viewBox="0 0 155.649 50.611">
    <defs>
        <linearGradient id="a" x1="-.061" y1=".5" x2="3.143" y2=".5" gradientUnits="objectBoundingBox">
            <stop offset="0" stop-color="#119fae"></stop>
            <stop offset=".62" stop-color="#157fba"></stop>
            <stop offset=".688" stop-color="#1779b2"></stop>
            <stop offset=".789" stop-color="#1e699e"></stop>
            <stop offset=".91" stop-color="#294f7d"></stop>
            <stop offset="1" stop-color="#343861"></stop>
        </linearGradient>
        <linearGradient id="b" x1="-6.002" x2="1.152" xlink:href="#a"></linearGradient>
        <linearGradient id="c" x1="-2.997" x2="4.719" xlink:href="#a"></linearGradient>
        <linearGradient id="d" x1="-4.936" x2="4.004" xlink:href="#a"></linearGradient>
        <linearGradient id="e" x1="-3861.499" y1=".503" x2="3861.515" y2=".503" xlink:href="#a"></linearGradient>
        <linearGradient id="f" x1="-6.25" x2="2.703" xlink:href="#a"></linearGradient>
    </defs>
    <path d="M25.306 0a25.333 25.333 0 1 0 17.886 7.42A25.3 25.3 0 0 0 25.306 0zm-1.31 47.943a22.678 22.678 0 0 1 0-45.279v8.582a14.117 14.117 0 0 0 0 28.116zm-5.082-13.076a11.5 11.5 0 1 1 6.392 1.939 11.5 11.5 0 0 1-6.392-1.939zm22.874 5.995a22.679 22.679 0 0 1-15.169 7.081v-8.581a14.117 14.117 0 0 0 0-28.116V2.664a22.678 22.678 0 0 1 15.169 38.2z"
          fill="#1d252c"></path>
    <path d="M148.782 389a25.333 25.333 0 1 0 17.886 7.42 25.3 25.3 0 0 0-17.886-7.42zm-1.31 47.943a22.678 22.678 0 0 1 0-45.279v8.582a14.117 14.117 0 0 0 0 28.116zm-5.082-13.076a11.5 11.5 0 1 1 6.392 1.939 11.5 11.5 0 0 1-6.392-1.939zm22.874 5.995a22.679 22.679 0 0 1-15.169 7.081v-8.581a14.117 14.117 0 0 0 0-28.116v-8.582a22.678 22.678 0 0 1 15.169 38.2z"
          fill="url(#a)" transform="translate(-123.476 -389)"></path>
    <path d="M152.339 17.215a11.107 11.107 0 0 0-8.167-3.263v.01a11.09 11.09 0 0 0-9.694 5.638 11.465 11.465 0 0 0-1.5 5.747 10.766 10.766 0 0 0 3.294 7.925 11.009 11.009 0 0 0 8.078 3.277 11.285 11.285 0 0 0 7.989-19.334zm-.1 12.7a8.7 8.7 0 0 1-3.328 3.324 9.226 9.226 0 0 1-4.635 1.215 8.974 8.974 0 0 1-9.065-9.109 9.3 9.3 0 0 1 1.2-4.7 9.187 9.187 0 0 1 7.854-4.6v.014a9.1 9.1 0 0 1 4.607 1.242 8.908 8.908 0 0 1 3.362 3.314 9.122 9.122 0 0 1 1.191 4.631 9.354 9.354 0 0 1-1.185 4.671z"
          fill="#1d252c"></path>
    <path d="M533.617 433.263A11.107 11.107 0 0 0 525.45 430v.01a11.09 11.09 0 0 0-9.694 5.638 11.465 11.465 0 0 0-1.5 5.747 10.766 10.766 0 0 0 3.294 7.925 11.009 11.009 0 0 0 8.078 3.277 11.285 11.285 0 0 0 7.989-19.334zm-.1 12.7a8.7 8.7 0 0 1-3.328 3.324 9.226 9.226 0 0 1-4.635 1.215 8.974 8.974 0 0 1-9.065-9.109 9.3 9.3 0 0 1 1.2-4.7 9.187 9.187 0 0 1 7.854-4.6v.014a9.1 9.1 0 0 1 4.607 1.242 8.908 8.908 0 0 1 3.362 3.314 9.122 9.122 0 0 1 1.191 4.631 9.354 9.354 0 0 1-1.185 4.671z"
          transform="translate(-381.278 -416.048)" fill="url(#b)"></path>
    <path d="M71.65 34.514a9.339 9.339 0 0 1-6.805-2.634 8.794 8.794 0 0 1-2.7-6.563 9.186 9.186 0 0 1 1.2-4.689 8.885 8.885 0 0 1 3.4-3.318 9.528 9.528 0 0 1 4.764-1.238 9.869 9.869 0 0 1 4.322.946 9.283 9.283 0 0 1 3.368 2.77l1.7-1.3a10.581 10.581 0 0 0-3.956-3.335 12.213 12.213 0 0 0-5.444-1.191 11.423 11.423 0 0 0-8.3 3.226 10.655 10.655 0 0 0-3.311 7.949A11.358 11.358 0 0 0 62.61 32.8a11.207 11.207 0 0 0 8.908 3.743 12.6 12.6 0 0 0 5.373-1.12 10.871 10.871 0 0 0 4.015-3.165l-1.7-1.286a9.567 9.567 0 0 1-7.556 3.542z"
          fill="#1d252c"></path>
    <path d="M311.236 450.586a9.339 9.339 0 0 1-6.805-2.634 8.794 8.794 0 0 1-2.7-6.563 9.186 9.186 0 0 1 1.2-4.689 8.885 8.885 0 0 1 3.4-3.318 9.528 9.528 0 0 1 4.764-1.238 9.869 9.869 0 0 1 4.322.946 9.283 9.283 0 0 1 3.368 2.77l1.7-1.3a10.581 10.581 0 0 0-3.956-3.335 12.213 12.213 0 0 0-5.444-1.191 11.423 11.423 0 0 0-8.3 3.226 10.655 10.655 0 0 0-3.311 7.949 11.358 11.358 0 0 0 2.722 7.663 11.207 11.207 0 0 0 8.908 3.743 12.6 12.6 0 0 0 5.373-1.12 10.871 10.871 0 0 0 4.015-3.165l-1.7-1.286a9.567 9.567 0 0 1-7.556 3.542z"
          transform="translate(-239.586 -416.072)" fill="url(#c)"></path>
    <path d="M102.503 27.45a6.989 6.989 0 1 1-13.975 0V14.52h-2.083v12.93a9.072 9.072 0 1 0 18.143 0V14.51h-2.086z"
          fill="#1d252c"></path>
    <path d="M393.571 444.58a6.989 6.989 0 1 1-13.975 0v-12.93h-2.083v12.93a9.072 9.072 0 1 0 18.143 0v-12.94h-2.086z"
          transform="translate(-291.068 -417.13)" fill="url(#d)"></path>
    <path d="M80.909 18.487h-.005l.005.006z" fill="#1d252c"></path>
    <path d="M361.234 443.329h-.005l.005.006z" transform="translate(-280.325 -424.842)" fill="url(#e)"></path>
    <path d="M121.589 15.283a22.754 22.754 0 0 0-7.006-.776h-4.459v21.512l6.843.014a13.6 13.6 0 0 0 6.251-1.171 8.944 8.944 0 0 0 3.627-3.627 11.321 11.321 0 0 0 1.4-5.686 11.594 11.594 0 0 0-1.763-6.465 9.358 9.358 0 0 0-4.893-3.801zm3.086 15.295a7.146 7.146 0 0 1-3.818 2.844 23.193 23.193 0 0 1-6.186.555h-2.484V16.599h1.521a25.1 25.1 0 0 1 6.653.616 7.573 7.573 0 0 1 4.2 3.022 9.217 9.217 0 0 1 1.507 5.318 8.753 8.753 0 0 1-1.393 5.019z"
          fill="#1d252c"></path>
    <path d="M458.565 432.4a22.754 22.754 0 0 0-7.006-.776H447.1v21.512l6.843.014a13.6 13.6 0 0 0 6.251-1.171 8.944 8.944 0 0 0 3.627-3.627 11.321 11.321 0 0 0 1.4-5.686 11.594 11.594 0 0 0-1.763-6.465 9.358 9.358 0 0 0-4.893-3.801zm3.086 15.295a7.146 7.146 0 0 1-3.818 2.844 23.193 23.193 0 0 1-6.186.555h-2.484v-17.378h1.521a25.1 25.1 0 0 1 6.653.616 7.573 7.573 0 0 1 4.2 3.022 9.217 9.217 0 0 1 1.507 5.318 8.753 8.753 0 0 1-1.393 5.019z"
          transform="translate(-336.976 -417.117)" fill="url(#f)"></path>
</svg>