<svg width="258" height="153" viewBox="0 0 258 153" fill="none" xmlns="http://www.w3.org/2000/svg">
<rect x="50.2513" y="3.71343" width="157.562" height="64.9308" fill="white" stroke="#88D840" stroke-width="6.5732"/>
<rect x="6.71343" y="48.1762" width="244.635" height="75.5834" fill="white" stroke="#88D840" stroke-width="6.5732"/>
<path d="M23.5129 128.303H12.2556L21.7446 134.36L44.4392 148.846L45.248 149.362H46.2076H211.852H212.812L213.621 148.846L236.315 134.36L245.804 128.303H234.547H23.5129Z" fill="#508C1D" stroke="#508C1D" stroke-width="6.5732"/>
<rect x="53.5379" y="7.00003" width="150.989" height="58.3576" fill="black"/>
<rect x="10" y="51.4628" width="238.062" height="69.0102" fill="black"/>
<path d="M86.0689 19.5051C85.791 19.5051 85.5131 19.7274 85.5131 20.0609V41.5698L76.2314 19.8385C76.1203 19.6162 75.9535 19.5051 75.7312 19.5051H69.8399C69.5064 19.5051 69.2841 19.7274 69.2841 20.0609V58.1323C69.2841 58.4657 69.5064 58.6881 69.8399 58.6881H75.7312C76.0091 58.6881 76.2314 58.4657 76.2314 58.1323V37.2903L85.5687 58.299C85.6242 58.5213 85.8466 58.6881 86.0689 58.6881H91.9602C92.2381 58.6881 92.516 58.4657 92.516 58.1323V20.0609C92.516 19.7274 92.2381 19.5051 91.9602 19.5051H86.0689Z" fill="white"/>
<path d="M99.1598 19.8941C98.8264 19.8941 98.604 20.172 98.604 20.4499V58.1323C98.604 58.4657 98.8264 58.6881 99.1598 58.6881H105.051C105.329 58.6881 105.551 58.4657 105.551 58.1323V20.4499C105.551 20.172 105.329 19.8941 105.051 19.8941H99.1598Z" fill="white"/>
<path d="M112.197 19.8941C111.863 19.8941 111.641 20.172 111.641 20.4499V58.1323C111.641 58.4657 111.863 58.6881 112.197 58.6881H118.088C118.366 58.6881 118.588 58.4657 118.588 58.1323V43.1816H128.815C129.093 43.1816 129.315 42.9593 129.315 42.6258V36.79C129.315 36.4566 129.093 36.2343 128.815 36.2343H118.588V26.897H129.982C130.316 26.897 130.538 26.6191 130.538 26.3412V20.4499C130.538 20.172 130.316 19.8941 129.982 19.8941H112.197Z" fill="white"/>
<path d="M137.229 19.8941C136.951 19.8941 136.673 20.172 136.673 20.4499V26.3412C136.673 26.6191 136.951 26.897 137.229 26.897H143.621V58.1323C143.621 58.4657 143.843 58.6881 144.121 58.6881H150.012C150.346 58.6881 150.568 58.4657 150.568 58.1323V26.897H156.904C157.237 26.897 157.46 26.6191 157.46 26.3412V20.4499C157.46 20.172 157.237 19.8941 156.904 19.8941H137.229Z" fill="white"/>
<path d="M182.17 19.9497C182.003 19.9497 181.781 20.1164 181.669 20.2832L176.278 33.5109L170.832 20.2832C170.776 20.1164 170.554 19.9497 170.331 19.9497H164.107C163.94 19.9497 163.718 20.0609 163.662 20.2276C163.551 20.3387 163.551 20.5611 163.606 20.7278L172.777 42.4591V58.1878C172.777 58.5213 173.055 58.7436 173.333 58.7436H179.224C179.502 58.7436 179.78 58.5213 179.78 58.1878V42.4035L188.95 20.7278C189.006 20.5611 189.006 20.3387 188.895 20.2276C188.784 20.0609 188.617 19.9497 188.45 19.9497H182.17Z" fill="white"/>
<path d="M23.5252 68.4141C23.1918 68.4141 22.9695 68.692 22.9695 68.9699V106.652C22.9695 106.986 23.1918 107.208 23.5252 107.208H29.4166C29.6945 107.208 29.9168 106.986 29.9168 106.652V91.7016H40.1433C40.4212 91.7016 40.6435 91.4792 40.6435 91.1458V85.31C40.6435 84.9765 40.4212 84.7542 40.1433 84.7542H29.9168V75.417H41.3104C41.6439 75.417 41.8662 75.1391 41.8662 74.8612V68.9699C41.8662 68.692 41.6439 68.4141 41.3104 68.4141H23.5252Z" fill="white"/>
<path d="M54.9489 68.4141C54.7822 68.4141 54.671 68.4697 54.5599 68.5808L48.1683 74.9724C48.0572 75.0835 48.0016 75.2503 48.0016 75.3614V100.261C48.0016 100.427 48.0572 100.594 48.1683 100.65L54.5599 107.041C54.6154 107.097 54.7266 107.152 54.7822 107.208H64.6196C64.7863 107.208 64.8975 107.152 65.0087 107.041L71.4002 100.65C71.5114 100.539 71.5669 100.427 71.5669 100.261V75.3614C71.5669 75.1947 71.5114 75.0835 71.4002 74.9724L65.0087 68.5808C64.9531 68.5252 64.8975 68.4697 64.8419 68.4697L64.6196 68.4141H54.9489ZM61.9518 100.261H57.6167L54.9489 97.5929V78.0292L57.6167 75.417H61.9518L64.6196 78.0292V97.5929L61.9518 100.261Z" fill="white"/>
<path d="M84.6488 68.4141C84.482 68.4141 84.3709 68.4697 84.2597 68.5808L77.8682 74.9724C77.757 75.0835 77.7014 75.2503 77.7014 75.3614V100.261C77.7014 100.427 77.757 100.594 77.8682 100.65L84.2597 107.041C84.3153 107.097 84.4265 107.152 84.482 107.208H94.3195C94.4862 107.208 94.5974 107.152 94.7085 107.041L101.1 100.65C101.211 100.539 101.267 100.427 101.267 100.261V75.3614C101.267 75.1947 101.211 75.0835 101.1 74.9724L94.7085 68.5808C94.6529 68.5252 94.5974 68.4697 94.5418 68.4697L94.3195 68.4141H84.6488ZM91.6517 100.261H87.3166L84.6488 97.5929V78.0292L87.3166 75.417H91.6517L94.3195 78.0292V97.5929L91.6517 100.261Z" fill="white"/>
<path d="M107.957 68.4141C107.679 68.4141 107.401 68.692 107.401 68.9699V74.8612C107.401 75.1391 107.679 75.417 107.957 75.417H114.349V106.652C114.349 106.986 114.571 107.208 114.849 107.208H120.74C121.074 107.208 121.296 106.986 121.296 106.652V75.417H127.632C127.965 75.417 128.188 75.1391 128.188 74.8612V68.9699C128.188 68.692 127.965 68.4141 127.632 68.4141H107.957Z" fill="white"/>
<path d="M134.835 68.4141C134.501 68.4141 134.279 68.692 134.279 68.9699V106.652C134.279 106.986 134.501 107.208 134.835 107.208H149.896C150.008 107.208 150.174 107.152 150.285 107.041L156.677 100.65C156.788 100.539 156.844 100.427 156.844 100.261V90.8679C156.844 90.7011 156.733 90.5344 156.621 90.4788L154.009 87.8111L156.677 85.1433C156.788 85.0321 156.844 84.921 156.844 84.7542V75.3614C156.844 75.1947 156.733 75.0835 156.621 74.9724L150.285 68.5808C150.174 68.5252 150.119 68.4697 150.008 68.4697C150.008 68.4141 149.952 68.4141 149.896 68.4141H134.835ZM147.229 84.7542H141.226V75.417H147.229L149.841 78.0292V82.0865L147.229 84.7542ZM147.229 100.261H141.226V91.7016H148.007L149.841 93.5357V97.5929L147.229 100.261Z" fill="white"/>
<path d="M171.451 68.4141C171.173 68.4141 170.951 68.5808 170.895 68.8587L162.947 106.541C162.947 106.708 162.947 106.875 163.059 106.986C163.17 107.152 163.337 107.208 163.503 107.208H169.395C169.617 107.208 169.839 107.041 169.895 106.763L171.84 97.5929H179.955L181.844 106.763C181.9 107.041 182.122 107.208 182.4 107.208H188.291C188.458 107.208 188.625 107.152 188.68 106.986C188.792 106.875 188.847 106.708 188.792 106.541L180.844 68.8587C180.788 68.5808 180.566 68.4141 180.344 68.4141H171.451ZM175.897 78.4183L178.454 90.6456H173.341L175.897 78.4183Z" fill="white"/>
<path d="M201.874 100.205V68.9699C201.874 68.692 201.652 68.4141 201.374 68.4141H195.483C195.149 68.4141 194.927 68.692 194.927 68.9699V106.652C194.927 106.986 195.149 107.208 195.483 107.208H211.545C211.878 107.208 212.101 106.93 212.101 106.652V100.761C212.101 100.483 211.878 100.205 211.545 100.205H201.874Z" fill="white"/>
<path d="M225.17 100.205V68.9699C225.17 68.692 224.947 68.4141 224.669 68.4141H218.778C218.445 68.4141 218.222 68.692 218.222 68.9699V106.652C218.222 106.986 218.445 107.208 218.778 107.208H234.84C235.174 107.208 235.396 106.93 235.396 106.652V100.761C235.396 100.483 235.174 100.205 234.84 100.205H225.17Z" fill="white"/>
</svg>
