<?xml version="1.0" encoding="utf-8"?>
<!-- Generator: Adobe Illustrator 16.0.0, SVG Export Plug-In . SVG Version: 6.00 Build 0)  -->
<!DOCTYPE svg PUBLIC "-//W3C//DTD SVG 1.1//EN" "http://www.w3.org/Graphics/SVG/1.1/DTD/svg11.dtd" [
	<!ENTITY ns_extend "http://ns.adobe.com/Extensibility/1.0/">
	<!ENTITY ns_ai "http://ns.adobe.com/AdobeIllustrator/10.0/">
	<!ENTITY ns_graphs "http://ns.adobe.com/Graphs/1.0/">
	<!ENTITY ns_vars "http://ns.adobe.com/Variables/1.0/">
	<!ENTITY ns_imrep "http://ns.adobe.com/ImageReplacement/1.0/">
	<!ENTITY ns_sfw "http://ns.adobe.com/SaveForWeb/1.0/">
	<!ENTITY ns_custom "http://ns.adobe.com/GenericCustomNamespace/1.0/">
	<!ENTITY ns_adobe_xpath "http://ns.adobe.com/XPath/1.0/">
]>
<svg version="1.1" id="Layer_1" xmlns:x="&ns_extend;" xmlns:i="&ns_ai;" xmlns:graph="&ns_graphs;"
	 xmlns="http://www.w3.org/2000/svg" xmlns:xlink="http://www.w3.org/1999/xlink" x="0px" y="0px" width="1380px" height="204px"
	 viewBox="0 0 1380 204" enable-background="new 0 0 1380 204" xml:space="preserve">
<metadata>
	<sfw  xmlns="&ns_sfw;">
		<slices></slices>
		<sliceSourceBounds  height="179.589" width="1348.752" y="-510.674" x="285.744" bottomLeftOrigin="true"></sliceSourceBounds>
	</sfw>
</metadata>
<g>
	<g>
		<path fill="#FFFFFF" d="M12.744,15.424H36.17V72.31h0.551l55.026-56.885h31.601L61.815,76.217l65.646,70.844H94.553L36.721,81.053
			H36.17v66.007H12.744V15.424z"/>
		<path fill="#FFFFFF" d="M139.717,57.817h21.205v14.32h0.379c1.979-4.475,5.422-8.399,10.309-11.808
			c4.906-3.408,10.689-5.129,17.402-5.129c5.834,0,10.791,1.033,14.957,3.063c4.166,2.065,7.557,4.75,10.207,8.107
			c2.668,3.356,4.629,7.177,5.869,11.532c1.223,4.337,1.859,8.795,1.859,13.374v55.783h-22.307V97.594
			c0-2.599-0.189-5.318-0.551-8.175c-0.396-2.84-1.188-5.422-2.428-7.711c-1.238-2.307-2.926-4.166-5.129-5.663
			c-2.168-1.497-5.043-2.237-8.623-2.237c-3.615,0-6.695,0.706-9.312,2.151c-2.598,1.412-4.715,3.236-6.402,5.474
			c-1.67,2.22-2.943,4.802-3.82,7.711c-0.861,2.909-1.291,5.852-1.291,8.83v49.088h-22.324V57.817z"/>
		<path fill="#FFFFFF" d="M242.73,102.068c0-7.073,1.273-13.476,3.803-19.242c2.549-5.783,5.973-10.688,10.328-14.785
			c4.338-4.096,9.467-7.246,15.422-9.484c5.955-2.237,12.254-3.356,18.967-3.356c6.695,0,13.014,1.119,18.969,3.356
			c5.938,2.238,11.102,5.388,15.422,9.484c4.354,4.097,7.779,9.002,10.326,14.785c2.547,5.766,3.822,12.169,3.822,19.242
			c0,7.074-1.275,13.494-3.822,19.33c-2.547,5.834-5.973,10.826-10.326,14.975c-4.32,4.147-9.484,7.4-15.422,9.775
			c-5.955,2.342-12.273,3.529-18.969,3.529c-6.713,0-13.012-1.188-18.967-3.529c-5.955-2.375-11.084-5.628-15.422-9.775
			c-4.355-4.148-7.779-9.141-10.328-14.975C244.004,115.562,242.73,109.143,242.73,102.068z M265.398,102.068
			c0,3.461,0.533,6.938,1.584,10.396c1.049,3.477,2.633,6.592,4.75,9.312c2.1,2.719,4.768,4.957,7.986,6.678
			c3.219,1.756,7.057,2.616,11.531,2.616c4.459,0,8.314-0.86,11.533-2.616c3.219-1.721,5.887-3.959,7.986-6.678
			c2.117-2.721,3.699-5.836,4.75-9.312c1.033-3.459,1.584-6.936,1.584-10.396c0-3.476-0.551-6.918-1.584-10.327
			c-1.051-3.408-2.633-6.489-4.75-9.191c-2.1-2.72-4.768-4.94-7.986-6.592c-3.219-1.687-7.074-2.53-11.533-2.53
			c-4.475,0-8.312,0.844-11.531,2.53c-3.219,1.652-5.887,3.873-7.986,6.592c-2.117,2.702-3.701,5.783-4.75,9.191
			C265.932,95.15,265.398,98.592,265.398,102.068z"/>
		<path fill="#FFFFFF" d="M348.688,57.817h24.182l18.59,63.96h0.361l19.156-63.96h23.805l19.346,63.96h0.361l18.951-63.96h23.252
			l-30.859,89.243h-22.686l-20.275-62.479h-0.363l-20.068,62.479h-22.686L348.688,57.817z"/>
		<path fill="#FFFFFF" d="M510.822,57.817h21.205v14.32h0.363c1.979-4.475,5.42-8.399,10.326-11.808
			c4.871-3.408,10.689-5.129,17.385-5.129c5.799,0,10.809,1.033,14.957,3.063c4.131,2.065,7.555,4.75,10.223,8.107
			s4.631,7.177,5.869,11.532c1.223,4.337,1.859,8.795,1.859,13.374v55.783h-22.307V97.594c0-2.599-0.189-5.318-0.584-8.175
			c-0.363-2.84-1.154-5.422-2.41-7.711c-1.223-2.307-2.961-4.166-5.113-5.663c-2.168-1.497-5.043-2.237-8.639-2.237
			c-3.598,0-6.695,0.706-9.295,2.151c-2.617,1.412-4.75,3.236-6.402,5.474c-1.688,2.22-2.961,4.802-3.822,7.711
			c-0.859,2.909-1.309,5.852-1.309,8.83v49.088h-22.307V57.817z"/>
		<path fill="#FFFFFF" d="M613.818,80.864c0-10.534,1.773-20.035,5.303-28.537c3.527-8.485,8.434-15.697,14.682-21.653
			c6.248-5.955,13.701-10.534,22.324-13.77c8.605-3.219,18.004-4.819,28.158-4.819c10.293,0,19.75,1.601,28.459,4.819
			c8.676,3.236,16.18,7.814,22.48,13.77c6.299,5.956,11.256,13.167,14.801,21.653c3.512,8.502,5.303,18.003,5.303,28.537
			c0,10.31-1.791,19.69-5.303,28.176c-3.545,8.485-8.502,15.8-14.801,21.945c-6.301,6.11-13.805,10.912-22.48,14.303
			c-8.709,3.408-18.166,5.112-28.459,5.112c-10.154,0-19.553-1.704-28.158-5.112c-8.623-3.391-16.076-8.192-22.324-14.303
			c-6.248-6.146-11.154-13.46-14.682-21.945C615.592,100.554,613.818,91.174,613.818,80.864z M639.293,80.864
			c0,7.057,1.084,13.546,3.254,19.433c2.168,5.886,5.248,11.016,9.293,15.335c4.045,4.337,8.812,7.711,14.32,10.138
			c5.508,2.41,11.619,3.633,18.314,3.633c6.678,0,12.822-1.223,18.391-3.633c5.611-2.427,10.396-5.801,14.424-10.138
			c4.027-4.319,7.125-9.449,9.295-15.335c2.168-5.887,3.234-12.375,3.234-19.433c0-6.798-1.066-13.132-3.234-18.95
			c-2.17-5.835-5.232-10.912-9.191-15.25c-3.959-4.355-8.744-7.746-14.32-10.241c-5.568-2.461-11.766-3.701-18.598-3.701
			c-6.816,0-12.979,1.239-18.486,3.701c-5.525,2.496-10.258,5.886-14.252,10.241c-3.957,4.337-7.021,9.415-9.189,15.25
			C640.377,67.731,639.293,74.065,639.293,80.864z"/>
		<path fill="#FFFFFF" d="M776.877,57.817h21.377v14.854h0.379c2.479-5.198,5.955-9.397,10.396-12.616
			c4.475-3.219,9.672-4.854,15.627-4.854c0.861,0,1.791,0.051,2.789,0.103c0.998,0.069,1.859,0.224,2.615,0.465v20.448
			c-1.514-0.361-2.787-0.603-3.82-0.74c-1.033-0.121-2.064-0.189-3.064-0.189c-5.094,0-9.189,0.93-12.254,2.789
			c-3.133,1.876-5.543,4.096-7.264,6.695c-1.756,2.599-2.926,5.284-3.545,8.003c-0.621,2.72-0.93,4.888-0.93,6.489v47.797h-22.307
			V57.817z"/>
		<path fill="#FFFFFF" d="M841.766,27.524c0-3.615,1.342-6.747,3.992-9.415c2.652-2.651,6.059-3.993,10.121-3.993
			c4.098,0,7.539,1.291,10.328,3.821c2.787,2.53,4.199,5.732,4.199,9.587c0,3.838-1.412,7.022-4.199,9.57
			c-2.789,2.547-6.23,3.804-10.328,3.804c-4.062,0-7.469-1.343-10.121-3.993C843.107,34.237,841.766,31.122,841.766,27.524z
			 M844.932,57.817h22.307v89.243h-22.307V57.817z"/>
		<path fill="#FFFFFF" d="M985.107,57.817v81.24c0,8.056-1,15.353-2.961,21.842c-1.996,6.523-5.061,12.031-9.227,16.558
			c-4.131,4.51-9.396,8.021-15.697,10.5c-6.334,2.479-13.838,3.717-22.512,3.717c-3.58,0-7.402-0.309-11.395-0.912
			c-4.027-0.637-8.021-1.566-11.912-2.805c-3.924-1.223-7.676-2.771-11.256-4.631c-3.58-1.875-6.816-3.976-9.674-6.334l12.84-17.297
			c4.338,4.096,9.227,7.229,14.699,9.38c5.439,2.187,10.947,3.271,16.523,3.271c5.336,0,9.812-0.775,13.494-2.342
			c3.65-1.531,6.541-3.699,8.744-6.42c2.135-2.754,3.684-5.989,4.648-9.725c0.895-3.717,1.377-7.814,1.377-12.307v-6.523h-0.379
			c-3.201,4.373-7.332,7.746-12.359,10.053c-5.025,2.307-10.602,3.477-16.799,3.477c-6.713,0-12.805-1.239-18.244-3.734
			c-5.439-2.462-10.086-5.818-13.838-10.035c-3.787-4.217-6.748-9.14-8.848-14.803c-2.135-5.611-3.166-11.601-3.166-17.918
			c0-6.437,1.031-12.512,3.062-18.227c2.066-5.697,4.957-10.654,8.744-14.871c3.787-4.217,8.365-7.556,13.77-10.035
			s11.43-3.735,18.141-3.735c6.301,0,12.188,1.325,17.66,3.924c5.439,2.599,9.777,6.644,12.979,12.065h0.379V57.817H985.107z
			 M937.533,73.428c-4.098,0-7.746,0.74-10.879,2.238c-3.166,1.48-5.852,3.477-8.02,6.007c-2.17,2.547-3.822,5.542-5.027,9.002
			c-1.17,3.459-1.754,7.16-1.754,11.119c0,3.58,0.584,7.041,1.754,10.362c1.205,3.356,2.857,6.334,5.027,8.984
			c2.168,2.668,4.854,4.802,8.02,6.403c3.133,1.601,6.713,2.41,10.672,2.41c4.096,0,7.779-0.775,11.051-2.324
			c3.305-1.532,6.092-3.598,8.398-6.196c2.271-2.616,4.027-5.577,5.268-8.985c1.273-3.407,1.859-6.953,1.859-10.654
			c0-3.838-0.586-7.47-1.859-10.929c-1.24-3.46-2.996-6.489-5.268-9.071c-2.307-2.616-5.061-4.647-8.295-6.127
			C945.277,74.168,941.596,73.428,937.533,73.428z"/>
		<path fill="#FFFFFF" d="M1009.1,27.524c0-3.615,1.309-6.747,3.994-9.415c2.65-2.651,6.059-3.993,10.119-3.993
			c4.131,0,7.539,1.291,10.363,3.821c2.754,2.53,4.164,5.732,4.164,9.587c0,3.838-1.41,7.022-4.164,9.57
			c-2.824,2.547-6.232,3.804-10.363,3.804c-4.061,0-7.469-1.343-10.119-3.993C1010.408,34.237,1009.1,31.122,1009.1,27.524z
			 M1012.268,57.817h22.307v89.243h-22.307V57.817z"/>
		<path fill="#FFFFFF" d="M1264.457,102.068c0-7.073,1.273-13.476,3.82-19.242c2.547-5.783,5.955-10.688,10.293-14.785
			c4.338-4.096,9.5-7.246,15.455-9.484c5.922-2.237,12.291-3.356,18.969-3.356s12.977,1.119,18.934,3.356
			c5.988,2.238,11.117,5.388,15.455,9.484c4.338,4.097,7.779,9.002,10.293,14.785c2.547,5.766,3.82,12.169,3.82,19.242
			c0,7.074-1.273,13.494-3.82,19.33c-2.514,5.834-5.955,10.826-10.293,14.975c-4.338,4.147-9.467,7.4-15.455,9.775
			c-5.957,2.342-12.256,3.529-18.934,3.529s-13.047-1.188-18.969-3.529c-5.955-2.375-11.117-5.628-15.455-9.775
			c-4.338-4.148-7.746-9.141-10.293-14.975C1265.73,115.562,1264.457,109.143,1264.457,102.068z M1287.107,102.068
			c0,3.461,0.551,6.938,1.617,10.396c1.033,3.477,2.617,6.592,4.75,9.312c2.102,2.719,4.752,4.957,7.986,6.678
			c3.203,1.756,7.059,2.616,11.533,2.616c4.439,0,8.295-0.86,11.498-2.616c3.234-1.721,5.885-3.959,8.02-6.678
			c2.1-2.721,3.684-5.836,4.717-9.312c1.066-3.459,1.584-6.936,1.584-10.396c0-3.476-0.518-6.918-1.584-10.327
			c-1.033-3.408-2.617-6.489-4.717-9.191c-2.135-2.72-4.785-4.94-8.02-6.592c-3.203-1.687-7.059-2.53-11.498-2.53
			c-4.475,0-8.33,0.844-11.533,2.53c-3.234,1.652-5.885,3.873-7.986,6.592c-2.133,2.702-3.717,5.783-4.75,9.191
			C1287.658,95.15,1287.107,98.592,1287.107,102.068z"/>
		<path fill="#FFFFFF" d="M1214.438,27.524c0-3.615,1.309-6.747,3.994-9.415c2.65-2.651,6.023-3.993,10.121-3.993
			c4.096,0,7.539,1.291,10.326,3.821c2.789,2.53,4.199,5.732,4.199,9.587c0,3.838-1.41,7.022-4.199,9.57
			c-2.787,2.547-6.23,3.804-10.326,3.804c-4.098,0-7.471-1.343-10.121-3.993C1215.746,34.237,1214.438,31.122,1214.438,27.524z
			 M1217.57,57.817h22.342v89.243h-22.342V57.817z"/>
		<path fill="#FFFFFF" d="M1061.734,57.817h21.17v14.32h0.379c1.963-4.475,5.439-8.399,10.328-11.808
			c4.887-3.408,10.67-5.129,17.383-5.129c5.818,0,10.809,1.033,14.939,3.063c4.166,2.065,7.574,4.75,10.225,8.107
			c2.686,3.356,4.613,7.177,5.887,11.532c1.24,4.337,1.824,8.795,1.824,13.374v55.783h-22.271V97.594
			c0-2.599-0.207-5.318-0.586-8.175c-0.379-2.84-1.17-5.422-2.41-7.711c-1.238-2.307-2.959-4.166-5.094-5.663
			c-2.17-1.497-5.061-2.237-8.676-2.237c-3.58,0-6.678,0.706-9.293,2.151c-2.582,1.412-4.752,3.236-6.404,5.474
			c-1.686,2.22-2.926,4.802-3.82,7.711c-0.861,2.909-1.273,5.852-1.273,8.83v49.088h-22.307V57.817z"/>
		<path fill="#FFFFFF" d="M1165.832,134.066c0-3.994,1.445-7.385,4.371-10.259c2.893-2.84,6.404-4.269,10.5-4.269
			c3.959,0,7.436,1.377,10.396,4.097c2.994,2.736,4.475,6.059,4.475,10.017c0,3.994-1.445,7.385-4.371,10.259
			c-2.928,2.841-6.404,4.269-10.5,4.269c-1.963,0-3.855-0.361-5.68-1.119c-1.791-0.74-3.373-1.738-4.717-2.977
			c-1.377-1.24-2.443-2.737-3.236-4.459C1166.244,137.887,1165.832,136.028,1165.832,134.066z"/>
	</g>
</g>
</svg>
